<?xml version="1.0" encoding="utf-8"?>
<!-- Generator: Adobe Illustrator 22.0.1, SVG Export Plug-In . SVG Version: 6.00 Build 0)  -->
<svg version="1.1"
	 id="Capa_1" inkscape:export-filename="/home/timo/web2py/applications/pb/static/css/css_template/img/pb-logo.svg.png" inkscape:export-xdpi="90" inkscape:export-ydpi="90" inkscape:version="0.91 r13725" sodipodi:docname="pb-logo.svg" xmlns:cc="http://creativecommons.org/ns#" xmlns:dc="http://purl.org/dc/elements/1.1/" xmlns:inkscape="http://www.inkscape.org/namespaces/inkscape" xmlns:rdf="http://www.w3.org/1999/02/22-rdf-syntax-ns#" xmlns:sodipodi="http://sodipodi.sourceforge.net/DTD/sodipodi-0.dtd" xmlns:svg="http://www.w3.org/2000/svg"
	 xmlns="http://www.w3.org/2000/svg" xmlns:xlink="http://www.w3.org/1999/xlink" x="0px" y="0px" viewBox="0 0 494.3 494.3"
	 style="enable-background:new 0 0 494.3 494.3;" xml:space="preserve">
<style type="text/css">
	.st0{fill:#5DBFFB;}
	.st1{opacity:0.4;fill:#B2DFFC;}
</style>
<sodipodi:namedview  bordercolor="#666666" borderopacity="1" gridtolerance="10" guidetolerance="10" id="namedview37" inkscape:current-layer="Capa_1" inkscape:cx="247.1425" inkscape:cy="247.14301" inkscape:pageopacity="0" inkscape:pageshadow="2" inkscape:window-height="480" inkscape:window-maximized="0" inkscape:window-width="739" inkscape:window-x="65" inkscape:window-y="24" inkscape:zoom="0.47745636" objecttolerance="10" pagecolor="#ffffff" showgrid="false">
	</sodipodi:namedview>
<g id="g7">
</g>
<g id="g9">
</g>
<g id="g11">
</g>
<g id="g13">
</g>
<g id="g15">
</g>
<g id="g17">
</g>
<g id="g19">
</g>
<g id="g21">
</g>
<g id="g23">
</g>
<g id="g25">
</g>
<g id="g27">
</g>
<g id="g29">
</g>
<g id="g31">
</g>
<g id="g33">
</g>
<g id="g35">
</g>
<rect x="-21" y="-19.3" class="st0" width="541" height="541"/>
<g id="g3">
	<path id="path5" d="M477.5,175.2l0.1-0.1L408.3,54.3l1.5-0.3c6.3-1.4,10.7-6.9,10.7-13.3v-6.2c0-8.7-8-15.1-16.5-13.3L84.5,90.2
		c-6.3,1.4-10.7,6.9-10.7,13.3v6.2c0,8.4,7.5,14.7,15.7,13.4L16.7,249.9l0.1,0.1H0c0,43.2,45.5,78.1,101.5,78.1S203,293.2,203,250
		h-14.4l0.1-0.1L113.1,118l117.1-25.2v350.9c-56.8,4.4-70.6,29.8-70.6,29.8h175.6c0,0-13.8-25.5-71-29.8V85.4l106-22.9l-64.6,112.6
		l0.1,0.1h-14.4c0,43.2,45.5,78.1,101.5,78.1c56.1,0,101.5-35,101.5-78.1L477.5,175.2L477.5,175.2z M40.1,250l62.6-109.1L165.3,250
		H40.1z M329,175.2l62.6-109.1l62.6,109.1H329z"/>
</g>
<path class="st1" d="M520-19.3c0,46.5,1.6,194.5,1.6,194.5c-70.9,36.5-173.4,59.5-287.5,59.5c-97.7,0-186.9-16.9-255.1-44.7
	c0,0,0-155.2,0-209.3c0,0,52.9,0,266.9,0S520-19.3,520-19.3z"/>
</svg>
