<?xml version="1.0" encoding="UTF-8" standalone="no"?>
<!-- Generator: Adobe Illustrator 16.0.0, SVG Export Plug-In . SVG Version: 6.00 Build 0)  -->

<svg
   xmlns:dc="http://purl.org/dc/elements/1.1/"
   xmlns:cc="http://creativecommons.org/ns#"
   xmlns:rdf="http://www.w3.org/1999/02/22-rdf-syntax-ns#"
   xmlns:svg="http://www.w3.org/2000/svg"
   xmlns="http://www.w3.org/2000/svg"
   xmlns:sodipodi="http://sodipodi.sourceforge.net/DTD/sodipodi-0.dtd"
   xmlns:inkscape="http://www.inkscape.org/namespaces/inkscape"
   version="1.1"
   id="Capa_1"
   x="0px"
   y="0px"
   width="494.285px"
   height="494.286px"
   viewBox="0 0 494.285 494.286"
   style="enable-background:new 0 0 494.285 494.286;"
   xml:space="preserve"
   inkscape:version="0.91 r13725"
   sodipodi:docname="pb-logo.svg"
   inkscape:export-filename="/home/timo/web2py/applications/pb/static/css/css_template/img/pb-logo.svg.png"
   inkscape:export-xdpi="90"
   inkscape:export-ydpi="90"><metadata
     id="metadata41"><rdf:RDF><cc:Work
         rdf:about=""><dc:format>image/svg+xml</dc:format><dc:type
           rdf:resource="http://purl.org/dc/dcmitype/StillImage" /></cc:Work></rdf:RDF></metadata><defs
     id="defs39" /><sodipodi:namedview
     pagecolor="#ffffff"
     bordercolor="#666666"
     borderopacity="1"
     objecttolerance="10"
     gridtolerance="10"
     guidetolerance="10"
     inkscape:pageopacity="0"
     inkscape:pageshadow="2"
     inkscape:window-width="739"
     inkscape:window-height="480"
     id="namedview37"
     showgrid="false"
     inkscape:zoom="0.47745636"
     inkscape:cx="247.1425"
     inkscape:cy="247.14301"
     inkscape:window-x="65"
     inkscape:window-y="24"
     inkscape:window-maximized="0"
     inkscape:current-layer="Capa_1" /><g
     id="g3"><path
       d="M477.469,175.201l0.149-0.088L408.312,54.311l1.496-0.32c6.263-1.353,10.73-6.895,10.73-13.301v-6.174   c0-8.663-7.997-15.123-16.47-13.294L84.47,90.154c-6.263,1.353-10.73,6.895-10.73,13.301v6.174c0,8.412,7.541,14.674,15.729,13.369   L16.66,249.913l0.149,0.089H0c0,43.159,45.451,78.146,101.517,78.146s101.518-34.986,101.518-78.146h-14.416l0.149-0.089   l-75.684-131.926l117.055-25.249v350.887c-56.841,4.393-70.604,29.75-70.604,29.75h175.563c0,0-13.818-25.466-70.958-29.784V85.407   l105.95-22.854l-64.565,112.56l0.149,0.088h-14.423c0,43.16,45.451,78.146,101.518,78.146c56.065,0,101.517-34.986,101.517-78.146   H477.469z M40.127,250.001l62.58-109.092l62.581,109.092H40.127z M328.984,175.201l62.58-109.099l62.587,109.099H328.984z"
       id="path5" /></g><g
     id="g7" /><g
     id="g9" /><g
     id="g11" /><g
     id="g13" /><g
     id="g15" /><g
     id="g17" /><g
     id="g19" /><g
     id="g21" /><g
     id="g23" /><g
     id="g25" /><g
     id="g27" /><g
     id="g29" /><g
     id="g31" /><g
     id="g33" /><g
     id="g35" /></svg>