<?xml version="1.0" encoding="UTF-8" standalone="no"?>
<!-- Generator: Adobe Illustrator 22.0.1, SVG Export Plug-In . SVG Version: 6.00 Build 0)  -->

<svg
   xmlns:dc="http://purl.org/dc/elements/1.1/"
   xmlns:cc="http://creativecommons.org/ns#"
   xmlns:rdf="http://www.w3.org/1999/02/22-rdf-syntax-ns#"
   xmlns:svg="http://www.w3.org/2000/svg"
   xmlns="http://www.w3.org/2000/svg"
   xmlns:sodipodi="http://sodipodi.sourceforge.net/DTD/sodipodi-0.dtd"
   xmlns:inkscape="http://www.inkscape.org/namespaces/inkscape"
   version="1.1"
   id="Ebene_1"
   x="0px"
   y="0px"
   viewBox="0 0 212.6 107.7"
   style="enable-background:new 0 0 212.6 107.7;"
   xml:space="preserve"
   inkscape:version="0.91 r13725"
   sodipodi:docname="logo_small.svg"
   inkscape:export-filename="/home/timo/Desktop/projects/timolubitz_website/img/logo_small.svg.png"
   inkscape:export-xdpi="90"
   inkscape:export-ydpi="90"><metadata
     id="metadata3801"><rdf:RDF><cc:Work
         rdf:about=""><dc:format>image/svg+xml</dc:format><dc:type
           rdf:resource="http://purl.org/dc/dcmitype/StillImage" /><dc:title></dc:title></cc:Work></rdf:RDF></metadata><defs
     id="defs3799" /><sodipodi:namedview
     pagecolor="#ffffff"
     bordercolor="#666666"
     borderopacity="1"
     objecttolerance="10"
     gridtolerance="10"
     guidetolerance="10"
     inkscape:pageopacity="0"
     inkscape:pageshadow="2"
     inkscape:window-width="1855"
     inkscape:window-height="1056"
     id="namedview3797"
     showgrid="false"
     inkscape:zoom="5.6067731"
     inkscape:cx="124.3466"
     inkscape:cy="55.45884"
     inkscape:window-x="65"
     inkscape:window-y="24"
     inkscape:window-maximized="1"
     inkscape:current-layer="Ebene_1" /><style
     type="text/css"
     id="style3">
	.st0{fill:#E30613;}
	.st1{fill:#FCEA10;}
	.st2{opacity:0.8;}
	.st3{fill:#FFFFFF;}
	.st4{opacity:0.8;fill:#FFFFFF;enable-background:new    ;}
	.st5{clip-path:url(#SVGID_2_);}
	.st6{fill:#9D9D9C;}
	.st7{fill:#878787;}
	.st8{clip-path:url(#SVGID_4_);}
	.st9{clip-path:url(#SVGID_6_);}
	.st10{clip-path:url(#SVGID_8_);}
	.st11{clip-path:url(#SVGID_10_);}
	.st12{clip-path:url(#SVGID_12_);}
	.st13{clip-path:url(#SVGID_14_);}
	.st14{clip-path:url(#SVGID_16_);}
	.st15{clip-path:url(#SVGID_18_);}
	.st16{clip-path:url(#SVGID_20_);}
	.st17{clip-path:url(#SVGID_22_);}
	.st18{clip-path:url(#SVGID_24_);}
	.st19{clip-path:url(#SVGID_26_);}
	.st20{clip-path:url(#SVGID_28_);}
	.st21{clip-path:url(#SVGID_30_);}
	.st22{clip-path:url(#SVGID_32_);}
	.st23{clip-path:url(#SVGID_34_);}
	.st24{clip-path:url(#SVGID_36_);}
	.st25{clip-path:url(#SVGID_38_);}
	.st26{clip-path:url(#SVGID_40_);}
	.st27{clip-path:url(#SVGID_42_);}
	.st28{clip-path:url(#SVGID_44_);}
	.st29{clip-path:url(#SVGID_46_);}
	.st30{clip-path:url(#SVGID_48_);}
	.st31{clip-path:url(#SVGID_50_);}
	.st32{clip-path:url(#SVGID_52_);}
	.st33{clip-path:url(#SVGID_54_);}
	.st34{clip-path:url(#SVGID_56_);}
	.st35{clip-path:url(#SVGID_58_);}
	.st36{clip-path:url(#SVGID_60_);}
	.st37{clip-path:url(#SVGID_62_);}
	.st38{clip-path:url(#SVGID_64_);}
	.st39{clip-path:url(#SVGID_66_);}
	.st40{clip-path:url(#SVGID_68_);}
	.st41{clip-path:url(#SVGID_70_);}
	.st42{clip-path:url(#SVGID_72_);}
	.st43{clip-path:url(#SVGID_74_);}
	.st44{clip-path:url(#SVGID_76_);}
	.st45{clip-path:url(#SVGID_78_);}
	.st46{clip-path:url(#SVGID_80_);}
	.st47{clip-path:url(#SVGID_82_);}
	.st48{clip-path:url(#SVGID_84_);}
	.st49{clip-path:url(#SVGID_86_);}
	.st50{clip-path:url(#SVGID_88_);}
	.st51{clip-path:url(#SVGID_90_);}
	.st52{clip-path:url(#SVGID_92_);}
	.st53{clip-path:url(#SVGID_94_);}
	.st54{clip-path:url(#SVGID_96_);}
	.st55{clip-path:url(#SVGID_98_);}
	.st56{clip-path:url(#SVGID_100_);}
	.st57{clip-path:url(#SVGID_102_);}
	.st58{clip-path:url(#SVGID_104_);}
	.st59{clip-path:url(#SVGID_106_);}
	.st60{clip-path:url(#SVGID_108_);}
	.st61{clip-path:url(#SVGID_110_);}
	.st62{clip-path:url(#SVGID_112_);}
	.st63{clip-path:url(#SVGID_114_);}
	.st64{clip-path:url(#SVGID_116_);}
	.st65{clip-path:url(#SVGID_118_);}
	.st66{clip-path:url(#SVGID_120_);}
	.st67{clip-path:url(#SVGID_122_);}
	.st68{clip-path:url(#SVGID_124_);}
	.st69{clip-path:url(#SVGID_126_);}
	.st70{clip-path:url(#SVGID_128_);}
	.st71{clip-path:url(#SVGID_130_);}
	.st72{clip-path:url(#SVGID_132_);}
	.st73{clip-path:url(#SVGID_134_);}
	.st74{clip-path:url(#SVGID_136_);}
	.st75{clip-path:url(#SVGID_138_);}
	.st76{clip-path:url(#SVGID_140_);}
	.st77{clip-path:url(#SVGID_142_);}
	.st78{clip-path:url(#SVGID_144_);}
	.st79{clip-path:url(#SVGID_146_);}
	.st80{clip-path:url(#SVGID_148_);}
	.st81{clip-path:url(#SVGID_150_);}
	.st82{clip-path:url(#SVGID_152_);}
	.st83{clip-path:url(#SVGID_154_);}
	.st84{clip-path:url(#SVGID_156_);}
	.st85{clip-path:url(#SVGID_158_);}
	.st86{clip-path:url(#SVGID_160_);}
	.st87{clip-path:url(#SVGID_162_);}
	.st88{clip-path:url(#SVGID_164_);}
	.st89{clip-path:url(#SVGID_166_);}
	.st90{clip-path:url(#SVGID_168_);}
	.st91{clip-path:url(#SVGID_170_);}
	.st92{enable-background:new    ;}
	.st93{fill:#003750;}
	.st94{fill:#366BB3;}
	.st95{font-family:'SpaceComics';}
	.st96{font-size:13.0362px;}
	.st97{fill:#F08262;}
	.st98{fill:#E8412B;}
	.st99{fill:#E41717;}
	.st100{fill:#E30914;}
	.st101{fill:#F3997A;}
	.st102{fill:#E52C1F;}
	.st103{fill:#E63323;}
	.st104{fill:#ED694A;}
	.st105{fill:#E41918;}
	.st106{fill:#E4201A;}
	.st107{opacity:0.8;fill:#F08262;enable-background:new    ;}
	.st108{fill:#E73826;}
	.st109{fill:#E5261D;}
	.st110{fill:#E8442E;}
	.st111{fill:#E5281D;}
	.st112{fill:#E41F1A;}
	.st113{fill:#E41316;}
	.st114{fill:#E94F35;}
	.st115{fill:#E41517;}
	.st116{fill:#FEF292;}
	.st117{fill:#FDED51;}
	.st118{fill:#FDEB21;}
	.st119{fill:#FCEA13;}
	.st120{fill:#FEF4A6;}
	.st121{fill:#FDEC37;}
	.st122{fill:#FDEC40;}
	.st123{fill:#FEF079;}
	.st124{fill:#FDEB23;}
	.st125{fill:#FDEB2A;}
	.st126{opacity:0.8;fill:#FEF292;enable-background:new    ;}
	.st127{fill:#FDEC47;}
	.st128{fill:#FDEB31;}
	.st129{fill:#FDED54;}
	.st130{fill:#FDEB33;}
	.st131{fill:#FDEB29;}
	.st132{fill:#FCEB1C;}
	.st133{fill:#FEEE60;}
	.st134{fill:#FDEB1E;}
</style><g
     class="st92"
     id="g3155"
     inkscape:export-xdpi="90"
     inkscape:export-ydpi="90"><path
       class="st3"
       d="M99.6,22.7c0.4,2.3,0.5,4.4,0.3,6.3c-1.9,0.1-3.7,0.2-5.4,0.5l1,11.9c-2.3,0.3-4.5,0.5-6.5,0.6l-0.5-12.1   c-1.8,0.1-3.5,0.3-5.2,0.5c-0.3-2.1-0.5-4.3-0.5-6.5C88.3,23.6,93.9,23.2,99.6,22.7z"
       id="path3157" /></g><g
     class="st92"
     id="g3159"
     inkscape:export-xdpi="90"
     inkscape:export-ydpi="90"><path
       class="st3"
       d="M108.9,22.6c0.2,6.3,0.5,12.2,0.9,17.7c-2,0.2-4.3,0.4-6.7,0.6c-0.6-4.3-1.1-10.2-1.4-17.6   C103.2,22.8,105.7,22.5,108.9,22.6z"
       id="path3161" /></g><g
     class="st92"
     id="g3163"
     inkscape:export-xdpi="90"
     inkscape:export-ydpi="90"><path
       class="st3"
       d="M112.3,28.5l0.1-6.3c3.6-0.4,6.4-0.8,8.2-1c1,1.2,1.9,2.3,2.9,3.3c0.8-1.1,1.6-2.3,2.3-3.6   c1.8,0,3.8-0.1,6.1-0.2c1.6,9.3,2.6,15.2,3,17.6c-1.7,0.5-3.8,0.8-6.1,1.1c-0.4-2.4-0.8-5.1-1.2-8.1l-3.5,3.7   c-1.4-1.2-2.5-2.2-3.4-3.1c0,3.1,0,5.8,0.1,8.1l-6.5,0.2l0.1-11.7L112.3,28.5z"
       id="path3165" /><path
       class="st3"
       d="M149,21c1.4,0.9,2.5,2.3,3.1,4c0.4,1.1,0.6,2.1,0.6,3.2c-0.2,6.3-3.3,9.6-9.5,9.9c-2.6,0.2-4.7-0.7-6.5-2.7   c-0.9-1.2-1.4-2.5-1.7-3.9c-0.3-1.5-0.2-3.1,0.2-4.8c0.5-1.8,1.3-3.2,2.4-4.3C141,19.1,144.8,18.6,149,21z M141.3,30.4   c0.4,1,1.2,1.4,2.4,1.4c1,0,1.8-0.4,2.4-1.1c0.6-0.9,0.7-1.8,0.3-2.6c-0.6-1.1-1.4-1.5-2.4-1.5c-1.3,0.2-2.1,0.9-2.6,2.1   C141.1,29.3,141.1,29.9,141.3,30.4z"
       id="path3167" /></g><g
     class="st92"
     id="g3169"
     inkscape:export-xdpi="90"
     inkscape:export-ydpi="90"><path
       class="st3"
       d="M78.3,47.5l0.9,12.8c1.8-0.2,3.7-0.3,5.7-0.5c0.2,2.1,0.2,4,0,5.5c-2.9,0.5-6.8,0.8-11.5,1   c-0.5-9.4-0.8-15.5-1.1-18.2C74.5,47.8,76.5,47.6,78.3,47.5z"
       id="path3171" /><path
       class="st3"
       d="M85.1,53.2c-0.2-2.4-0.2-4.2-0.1-5.7c3.5-0.7,6.2-1.1,8.2-1.2c-0.1,0.9-0.1,2.5-0.1,5c0,2.5,0.3,4.3,0.8,5.4   c0.3,0.6,0.8,1,1.3,1c0.7-0.1,1.1-0.4,1.3-1.1c0.4-2.3,0.1-5.8-0.6-10.5l6.1-0.1c0.8,3.4,1.1,6.5,1.1,9.3c-0.1,4.5-1.9,7.5-5.2,9   c-1.5,0.6-3.2,0.8-4.9,0.5c-2.9-0.8-4.9-3.3-5.8-7.6c-0.3-2-0.5-3.5-0.3-4.4L85.1,53.2z"
       id="path3173" /></g><g
     class="st92"
     id="g3175"
     inkscape:export-xdpi="90"
     inkscape:export-ydpi="90"><path
       class="st3"
       d="M104.4,52.1c-0.2-2-0.4-3.6-0.6-4.9c1.5-0.7,3.9-1.2,7.4-1.6c4.1-0.3,6.9,0.7,8.4,3c1,1.9,0.6,3.6-1,5.1   c1.8,0.8,2.8,1.9,2.9,3.4c0.1,1.5-0.3,2.6-1.1,3.4c-0.4,0.4-0.9,0.8-1.4,1.1c-2.1,1.2-4.5,1.8-7.1,2c-0.8,0.1-2.4,0.1-4.7,0.1   c-0.4-5.6-0.7-9.6-0.9-12L104.4,52.1z M111.2,52.2c2,0,2.9-0.5,2.7-1.5c-0.1-0.4-0.3-0.6-0.7-0.7c-0.8-0.1-1.5,0-2.2,0.3   C111,51,111.1,51.6,111.2,52.2z M111.9,58.7c2.4,0.1,3.6-0.5,3.5-1.6c-0.1-0.4-0.5-0.7-1.1-0.8c-0.8-0.1-1.7,0-2.6,0.4   C111.7,57.5,111.8,58.1,111.9,58.7z"
       id="path3177" /></g><g
     class="st92"
     id="g3179"
     inkscape:export-xdpi="90"
     inkscape:export-ydpi="90"><path
       class="st3"
       d="M128.4,44.3c0.2,6.3,0.5,12.2,0.9,17.7c-2,0.2-4.3,0.4-6.7,0.6c-0.6-4.3-1.1-10.2-1.4-17.6   C122.7,44.5,125.1,44.3,128.4,44.3z"
       id="path3181" /></g><g
     class="st92"
     id="g3183"
     inkscape:export-xdpi="90"
     inkscape:export-ydpi="90"><path
       class="st3"
       d="M146.3,42.6c0.4,2.3,0.5,4.4,0.3,6.3c-1.9,0.1-3.7,0.2-5.4,0.5l1,11.9c-2.3,0.3-4.5,0.5-6.5,0.6l-0.5-12.1   c-1.8,0.1-3.5,0.3-5.2,0.5c-0.3-2.1-0.5-4.3-0.5-6.5C135,43.5,140.6,43.1,146.3,42.6z"
       id="path3185" /><path
       class="st3"
       d="M149.6,60.9c-0.2-2.3-0.3-4.1-0.3-5.4c2.7-3.4,4.7-5.8,6-7.2c-2.8,0.2-5.1,0.4-6.8,0.5   c-0.2-2.4-0.3-4.5-0.1-6.3c5.2-0.3,10.8-0.7,17-1.3c0.2,1.5,0.3,3.6,0.4,6.2c-3.2,2.7-5.7,4.9-7.4,6.8c2.4-0.2,5-0.3,7.8-0.6   c0.4,2,0.5,4,0.5,5.9C161.1,60,155.5,60.5,149.6,60.9z"
       id="path3187" /></g><g
     class="st92"
     id="g3189"
     inkscape:export-xdpi="90"
     inkscape:export-ydpi="90"><path
       class="st3"
       d="M79,71c1.2-0.4,2.6-0.7,4.4-0.8c1.6-0.1,2.9,0.3,3.9,1c1,0.7,1.5,2,1.7,3.9c0,1.2-0.2,2.2-0.6,2.8   c-1,1.4-2.3,2.2-3.9,2.3c-1.6,0.2-2.7,0.3-3.4,0.1c-0.1-1.5-0.3-3.6-0.6-6.5L79.4,74C79.2,72.7,79.1,71.7,79,71z M83.9,76.7   c0.6,0,1.2-0.2,1.6-0.6c0.4-0.3,0.5-0.8,0.4-1.4c-0.2-1.2-1-1.7-2.4-1.4C83.6,74.4,83.7,75.5,83.9,76.7z"
       id="path3191" /></g><g
     class="st92"
     id="g3193"
     inkscape:export-xdpi="90"
     inkscape:export-ydpi="90"><path
       class="st3"
       d="M97.2,69.2c0,1.2,0,2.3,0.1,3.1l-3.8,0.3l0.1,0.8l2.7-0.3l0.2,2.4c-0.7,0.1-1.6,0.2-2.6,0.3l0.1,0.7   c1.1-0.1,2.4-0.2,3.8-0.4c0.1,1.3,0.2,2.3,0.4,3c-1.4,0.1-3.8,0.4-7.3,0.7c-0.1-2.7-0.3-5.1-0.5-7.1L89.3,73L89,69.9   C90.6,69.8,93.3,69.6,97.2,69.2z"
       id="path3195" /></g><g
     class="st92"
     id="g3197"
     inkscape:export-xdpi="90"
     inkscape:export-ydpi="90"><path
       class="st3"
       d="M98.3,72.4c-0.3-1.2-0.5-2.2-0.6-2.9c1.4-0.4,2.7-0.6,4.1-0.7c0.8,2.8,1.5,4.8,2,6.1c0.5-2.2,0.8-4.3,1-6.2   l3.4,0c-1.1,5.1-1.9,8.5-2.2,10.2c-1.5,0.2-2.7,0.3-3.7,0.3c-1.4-2.8-2.4-5.1-3-6.9L98.3,72.4z"
       id="path3199" /><path
       class="st3"
       d="M116.9,67.8c0,1.2,0,2.3,0.1,3.1l-3.8,0.3l0.1,0.8l2.7-0.3l0.2,2.4c-0.7,0.1-1.6,0.2-2.7,0.3l0.1,0.7   c1.1-0.1,2.4-0.2,3.8-0.4c0.1,1.3,0.2,2.3,0.4,3c-1.4,0.1-3.8,0.4-7.3,0.7c-0.1-2.7-0.3-5.1-0.5-7.1l-0.9,0.1l-0.3-3.1   C110.2,68.4,113,68.2,116.9,67.8z"
       id="path3201" /><path
       class="st3"
       d="M121.1,67.6l0.5,7.1c1-0.1,2-0.2,3.1-0.3c0.1,1.2,0.1,2.2,0,3.1c-1.6,0.3-3.8,0.5-6.4,0.6   c-0.3-5.2-0.5-8.6-0.6-10.1C119,67.7,120.1,67.6,121.1,67.6z"
       id="path3203" /></g><g
     class="st92"
     id="g3205"
     inkscape:export-xdpi="90"
     inkscape:export-ydpi="90"><path
       class="st3"
       d="M132.9,67.6c0.8,0.5,1.4,1.3,1.7,2.2c0.2,0.6,0.3,1.2,0.3,1.8c-0.1,3.5-1.8,5.3-5.3,5.5   c-1.4,0.1-2.6-0.4-3.6-1.5c-0.5-0.6-0.8-1.4-0.9-2.2c-0.1-0.9-0.1-1.7,0.1-2.7c0.3-1,0.7-1.8,1.3-2.4   C128.5,66.6,130.6,66.3,132.9,67.6z M128.6,72.8c0.2,0.5,0.7,0.8,1.3,0.8c0.6,0,1-0.2,1.3-0.6c0.3-0.5,0.4-1,0.2-1.5   c-0.3-0.6-0.8-0.9-1.3-0.8c-0.7,0.1-1.2,0.5-1.5,1.2C128.5,72.2,128.5,72.5,128.6,72.8z"
       id="path3207" /></g><g
     class="st92"
     id="g3209"
     inkscape:export-xdpi="90"
     inkscape:export-ydpi="90"><path
       class="st3"
       d="M134.6,67.1c2.2-0.8,4.2-1,6-0.8c1.6,0.3,2.5,1.4,2.8,3c0.2,2.2-0.8,3.5-2.8,4c-0.5,0.1-0.9,0.2-1.2,0.3   c0.1,1.1,0.2,2,0.4,2.9c-1.2,0.1-2.4,0.2-3.4,0.3c-0.2-2.8-0.4-5.2-0.5-7L135,70L134.6,67.1z M139.1,71c1-0.1,1.4-0.4,1.5-1   c0-0.4-0.2-0.6-0.4-0.8c-0.5-0.2-0.9-0.2-1.2,0C138.9,69.8,139,70.4,139.1,71z"
       id="path3211" /><path
       class="st3"
       d="M151.9,65.4c0,1.2,0,2.3,0.1,3.1l-3.8,0.3l0.1,0.8l2.7-0.3l0.2,2.4c-0.7,0.1-1.6,0.2-2.6,0.3l0.1,0.7   c1.1-0.1,2.4-0.2,3.8-0.4c0.1,1.3,0.2,2.3,0.4,3c-1.4,0.1-3.8,0.4-7.3,0.7c-0.1-2.7-0.3-5.1-0.5-7.1l-0.9,0.1l-0.3-3.1   C145.3,65.9,148,65.7,151.9,65.4z"
       id="path3213" /><path
       class="st3"
       d="M152.8,68.9c0-1.2,0-2.3,0-3.1c1.9-0.6,3.7-0.9,5.2-0.9c0.8,0,1.6,0.3,2.3,0.6c0.7,0.4,1.2,0.9,1.4,1.4   c0.5,1.6,0,3-1.7,4.4c0.8,0.8,1.5,1.4,2.1,1.8l-2.4,2.5l-2.3-2.7c0.1,0.9,0.1,1.6,0.2,2.4c-1.5,0.2-2.6,0.2-3.3,0.2   c-0.1-1-0.2-3.3-0.4-6.8L152.8,68.9z M157.1,68c0,0.5,0,1.1,0.1,1.7l0.5-0.2c0.6-0.3,0.9-0.7,0.9-1.1c0-0.3-0.2-0.5-0.5-0.5   C157.8,67.9,157.5,67.9,157.1,68z"
       id="path3215" /></g><g
     class="st92"
     id="g3217"
     inkscape:export-xdpi="90"
     inkscape:export-ydpi="90"><path
       class="st93"
       d="M101.6,24.8c0.4,2.1,0.5,4.1,0.3,5.9c-1.7,0-3.4,0.2-4.9,0.4l0.9,11.1c-2.1,0.2-4.1,0.4-5.9,0.5l-0.5-11.2   c-1.6,0.1-3.2,0.3-4.7,0.4c-0.3-2-0.4-4-0.4-6.1C91.3,25.6,96.4,25.3,101.6,24.8z"
       id="path3219" /></g><g
     class="st92"
     id="g3221"
     inkscape:export-xdpi="90"
     inkscape:export-ydpi="90"><path
       class="st93"
       d="M110.1,24.7c0.2,5.8,0.5,11.3,0.8,16.5c-1.8,0.2-3.9,0.4-6.1,0.5c-0.6-4.1-1-9.5-1.3-16.4   C104.9,24.9,107.1,24.6,110.1,24.7z"
       id="path3223" /></g><g
     class="st92"
     id="g3225"
     inkscape:export-xdpi="90"
     inkscape:export-ydpi="90"><path
       class="st93"
       d="M113.2,30.2l0-5.8c3.3-0.4,5.8-0.7,7.4-0.9c0.9,1.1,1.7,2.1,2.6,3.1c0.7-1,1.4-2.1,2.1-3.4   c1.6,0,3.4-0.1,5.5-0.2c1.5,8.7,2.4,14.2,2.7,16.4c-1.6,0.4-3.4,0.8-5.6,1c-0.4-2.2-0.7-4.8-1.1-7.6l-3.2,3.4   c-1.3-1.1-2.3-2.1-3.1-2.9c0,2.9,0,5.5,0.1,7.5l-5.9,0.2l0.1-10.9L113.2,30.2z"
       id="path3227" /><path
       class="st93"
       d="M146.4,23.3c1.3,0.9,2.2,2.1,2.9,3.7c0.3,1,0.5,2,0.6,3c-0.1,5.9-3,9-8.6,9.2c-2.3,0.2-4.3-0.7-5.9-2.5   c-0.8-1.1-1.3-2.3-1.5-3.6c-0.2-1.4-0.2-2.9,0.2-4.5c0.5-1.7,1.2-3,2.2-4C139.2,21.6,142.6,21.1,146.4,23.3z M139.4,32   c0.4,0.9,1.1,1.3,2.2,1.3c0.9,0,1.7-0.4,2.2-1c0.6-0.8,0.7-1.7,0.3-2.4c-0.5-1-1.3-1.4-2.2-1.4c-1.1,0.2-1.9,0.8-2.4,1.9   C139.3,31,139.3,31.5,139.4,32z"
       id="path3229" /></g><text
     transform="matrix(1 0 0 1 158.6794 33.121)"
     class="st94 st95 st96"
     id="text3231" />
<g
     class="st92"
     id="g3233"
     inkscape:export-xdpi="90"
     inkscape:export-ydpi="90"><path
       class="st93"
       d="M82.3,47.9l0.8,11.9c1.6-0.2,3.3-0.3,5.1-0.5c0.2,2,0.2,3.7,0,5.2c-2.6,0.4-6.1,0.8-10.5,0.9   c-0.4-8.8-0.8-14.4-1-17C78.8,48.2,80.7,48,82.3,47.9z"
       id="path3235" /><path
       class="st93"
       d="M88.5,53.2c-0.2-2.2-0.2-4-0.1-5.3c3.1-0.6,5.6-1,7.5-1.1c-0.1,0.8-0.1,2.3-0.1,4.6c0,2.3,0.3,4,0.7,5.1   c0.3,0.6,0.7,0.9,1.2,0.9c0.6-0.1,1-0.4,1.1-1c0.3-2.2,0.1-5.4-0.6-9.8l5.6,0c0.7,3.2,1,6.1,1,8.7c-0.1,4.2-1.7,7-4.7,8.4   c-1.4,0.6-2.9,0.7-4.4,0.5c-2.7-0.7-4.4-3.1-5.3-7.1c-0.3-1.9-0.4-3.3-0.3-4.1L88.5,53.2z"
       id="path3237" /></g><g
     class="st92"
     id="g3239"
     inkscape:export-xdpi="90"
     inkscape:export-ydpi="90"><path
       class="st93"
       d="M105.9,52.2c-0.2-1.8-0.4-3.4-0.5-4.6c1.3-0.6,3.6-1.1,6.7-1.5c3.7-0.3,6.3,0.6,7.6,2.8   c0.9,1.8,0.6,3.4-0.9,4.7c1.6,0.7,2.5,1.8,2.6,3.2c0.1,1.4-0.2,2.4-1,3.1c-0.4,0.4-0.8,0.7-1.3,1c-1.9,1.1-4.1,1.7-6.4,1.8   c-0.8,0.1-2.2,0.1-4.3,0.1c-0.4-5.2-0.7-8.9-0.8-11.2L105.9,52.2z M112.1,52.3c1.8,0,2.7-0.5,2.5-1.4c-0.1-0.4-0.3-0.6-0.7-0.7   c-0.7-0.1-1.4,0-2,0.3C112,51.2,112,51.8,112.1,52.3z M112.8,58.4c2.2,0.1,3.2-0.4,3.1-1.5c-0.1-0.4-0.4-0.6-1-0.7   c-0.7-0.1-1.5,0-2.3,0.4C112.6,57.2,112.7,57.8,112.8,58.4z"
       id="path3241" /></g><g
     class="st92"
     id="g3243"
     inkscape:export-xdpi="90"
     inkscape:export-ydpi="90"><path
       class="st93"
       d="M127.8,45c0.2,5.8,0.5,11.3,0.8,16.5c-1.8,0.2-3.9,0.4-6.1,0.5c-0.6-4.1-1-9.5-1.3-16.4   C122.7,45.2,124.8,44.9,127.8,45z"
       id="path3245" /></g><g
     class="st92"
     id="g3247"
     inkscape:export-xdpi="90"
     inkscape:export-ydpi="90"><path
       class="st93"
       d="M144,43.4c0.4,2.1,0.5,4.1,0.3,5.9c-1.7,0-3.4,0.2-4.9,0.4l0.9,11.1c-2.1,0.2-4,0.4-5.9,0.5l-0.5-11.2   c-1.6,0.1-3.2,0.3-4.7,0.4c-0.3-2-0.4-4-0.4-6.1C133.7,44.2,138.8,43.9,144,43.4z"
       id="path3249" /><path
       class="st93"
       d="M147,60.4c-0.2-2.1-0.3-3.8-0.3-5c2.4-3.1,4.2-5.4,5.5-6.7c-2.5,0.2-4.6,0.4-6.2,0.4   c-0.2-2.3-0.2-4.2-0.1-5.9c4.7-0.3,9.8-0.7,15.4-1.2c0.2,1.4,0.3,3.4,0.4,5.8c-2.9,2.5-5.1,4.6-6.7,6.3c2.1-0.1,4.5-0.3,7.1-0.5   c0.3,1.9,0.5,3.7,0.5,5.5C157.5,59.7,152.3,60.1,147,60.4z"
       id="path3251" /></g></svg>